<svg width="32" height="24" viewBox="0 0 32 24" fill="none" xmlns="http://www.w3.org/2000/svg">
<g clip-path="url(#clip0_1663_1605)">
<rect width="32" height="24" fill="white"/>
<path fill-rule="evenodd" clip-rule="evenodd" d="M0 0V24H32V0H0Z" fill="#F7FCFF"/>
<mask id="mask0_1663_1605" style="mask-type:luminance" maskUnits="userSpaceOnUse" x="0" y="0" width="32" height="24">
<path fill-rule="evenodd" clip-rule="evenodd" d="M0 0V24H32V0H0Z" fill="white"/>
</mask>
<g mask="url(#mask0_1663_1605)">
<path fill-rule="evenodd" clip-rule="evenodd" d="M0 0V8H32V0H0Z" fill="#E31D1C"/>
<path fill-rule="evenodd" clip-rule="evenodd" d="M0 16V24H32V16H0Z" fill="#3D58DB"/>
<rect x="10.0765" y="6.39734" width="11.4" height="4" fill="#E31D1C"/>
<path d="M20.7802 8.95984C20.7972 9.72873 20.8027 11.07 20.8026 12.3612C20.8025 13.1951 20.8009 13.9982 20.7987 14.5927C20.7976 14.8898 20.7966 15.1348 20.7958 15.3055C20.7954 15.3906 20.795 15.4574 20.7948 15.5028C20.7947 15.5137 20.7939 15.5237 20.7938 15.5321V15.535C20.7894 15.5616 20.7818 15.6033 20.7704 15.6581C20.7474 15.7681 20.7089 15.9301 20.6473 16.1259C20.5235 16.5191 20.3098 17.0404 19.955 17.5585C19.2605 18.5724 17.9994 19.6151 15.6493 19.6151C13.3029 19.615 12.1034 18.5742 11.4647 17.5702C11.1368 17.0546 10.9494 16.5345 10.8446 16.1415C10.7925 15.946 10.7608 15.7846 10.743 15.6747C10.7342 15.6199 10.7286 15.5782 10.7255 15.5516C10.7251 15.5482 10.7248 15.5448 10.7245 15.5419C10.7243 15.5302 10.7238 15.5127 10.7235 15.4901C10.723 15.445 10.7216 15.3786 10.7206 15.2938C10.7185 15.1242 10.7163 14.8802 10.7128 14.5848C10.7057 13.9941 10.6958 13.1958 10.6864 12.3651C10.6721 11.0953 10.6601 9.75337 10.6542 8.95984H20.7802Z" fill="#F7FCFF" stroke="#E31D1C" stroke-width="1.125"/>
<mask id="mask1_1663_1605" style="mask-type:luminance" maskUnits="userSpaceOnUse" x="10" y="8" width="12" height="13">
<path d="M20.7802 8.95984C20.7972 9.72873 20.8027 11.07 20.8026 12.3612C20.8025 13.1951 20.8009 13.9982 20.7987 14.5927C20.7976 14.8898 20.7966 15.1348 20.7958 15.3055C20.7954 15.3906 20.795 15.4574 20.7948 15.5028C20.7947 15.5137 20.7939 15.5237 20.7938 15.5321V15.535C20.7894 15.5616 20.7818 15.6033 20.7704 15.6581C20.7474 15.7681 20.7089 15.9301 20.6473 16.1259C20.5235 16.5191 20.3098 17.0404 19.955 17.5585C19.2605 18.5724 17.9994 19.6151 15.6493 19.6151C13.3029 19.615 12.1034 18.5742 11.4647 17.5702C11.1368 17.0546 10.9494 16.5345 10.8446 16.1415C10.7925 15.946 10.7608 15.7846 10.743 15.6747C10.7342 15.6199 10.7286 15.5782 10.7255 15.5516C10.7251 15.5482 10.7248 15.5448 10.7245 15.5419C10.7243 15.5302 10.7238 15.5127 10.7235 15.4901C10.723 15.445 10.7216 15.3786 10.7206 15.2938C10.7185 15.1242 10.7163 14.8802 10.7128 14.5848C10.7057 13.9941 10.6958 13.1958 10.6864 12.3651C10.6721 11.0953 10.6601 9.75337 10.6542 8.95984H20.7802Z" fill="white" stroke="white" stroke-width="1.125"/>
</mask>
<g mask="url(#mask1_1663_1605)">
<path d="M12.6078 19.7499H10.4984V17.6073H12.6078V19.7499ZM16.8265 19.7499H14.7172V17.6073H16.8265V19.7499ZM21.0453 19.7499H18.9359V17.6073H21.0453V19.7499ZM14.7172 17.6073H12.6078V15.4657H14.7172V17.6073ZM18.9359 17.6073H16.8265V15.4657H18.9359V17.6073ZM12.6078 15.4657H10.4984V13.3241H12.6078V15.4657ZM16.8265 15.4657H14.7172V13.3241H16.8265V15.4657ZM21.0453 15.4657H18.9359V13.3241H21.0453V15.4657ZM14.7172 13.3241H12.6078V11.1815H14.7172V13.3241ZM18.9359 13.3241H16.8265V11.1815H18.9359V13.3241ZM12.6078 11.1815H10.4984V9.03992H12.6078V11.1815ZM16.8265 11.1815H14.7172V9.03992H16.8265V11.1815ZM21.0453 11.1815H18.9359V9.03992H21.0453V11.1815Z" fill="#F50100"/>
</g>
<path fill-rule="evenodd" clip-rule="evenodd" d="M10.453 8.16255C10.453 8.16255 11.1055 7.81405 11.6619 7.63445C12.2184 7.45485 12.6583 7.35673 12.6583 7.35673L11.8303 4.30464L10.172 3.68506L9.23279 5.23316L10.453 8.16255Z" fill="#56C6F5" stroke="white" stroke-width="0.5"/>
<path d="M10.181 6.4907L10.3716 6.39884C10.5684 6.81976 10.8278 6.94977 11.1833 6.81708C11.5465 6.68155 11.6945 6.42526 11.6423 6.01894L11.8514 5.99121C11.9163 6.49558 11.7129 6.84763 11.2561 7.01813C10.7916 7.19147 10.4221 7.00625 10.181 6.4907Z" fill="white"/>
<path fill-rule="evenodd" clip-rule="evenodd" d="M10.6323 5.54176L10.4501 5.65212C10.4098 5.67654 10.3597 5.64145 10.3688 5.59521L10.4102 5.38628L10.2236 5.28368C10.1823 5.26098 10.1876 5.20003 10.2322 5.18485L10.4339 5.11622L10.4294 4.90327C10.4284 4.85615 10.4838 4.8303 10.5193 4.86134L10.6795 5.00166L10.8617 4.8913C10.902 4.86688 10.9522 4.90198 10.943 4.94821L10.9016 5.15715L11.0883 5.25974C11.1296 5.28244 11.1242 5.3434 11.0796 5.35858L10.878 5.4272L10.8825 5.64015C10.8835 5.68727 10.828 5.71313 10.7925 5.68208L10.6323 5.54176Z" fill="#FECA00"/>
<path fill-rule="evenodd" clip-rule="evenodd" d="M14.5407 7.07575C14.5407 7.07575 15.0971 7.0261 15.6817 7.03746C16.2664 7.04881 16.7609 7.05297 16.7609 7.05297L17.0465 4.04349L15.7942 2.9121L14.4021 4.07008L14.5407 7.07575Z" fill="#56C6F5" stroke="white" stroke-width="0.5"/>
<path fill-rule="evenodd" clip-rule="evenodd" d="M15.7501 6.58475C16.2325 6.58475 16.2787 6.06379 16.2787 5.7089C16.1553 5.51207 16.1802 5.37122 15.7848 5.37122C15.3895 5.37122 15.3444 5.49068 15.229 5.7089C15.229 6.06379 15.2678 6.58475 15.7501 6.58475Z" fill="#FECA00"/>
<path fill-rule="evenodd" clip-rule="evenodd" d="M16.293 5.11282C16.7753 5.11282 16.8215 4.59186 16.8215 4.23698C16.6982 4.04015 16.723 3.89929 16.3277 3.89929C15.9323 3.89929 15.8872 4.01875 15.7719 4.23698C15.7719 4.59186 15.8106 5.11282 16.293 5.11282Z" fill="#FECA00"/>
<path fill-rule="evenodd" clip-rule="evenodd" d="M15.2383 5.11282C15.7206 5.11282 15.7668 4.59186 15.7668 4.23698C15.6435 4.04015 15.6683 3.89929 15.273 3.89929C14.8776 3.89929 14.8325 4.01875 14.7172 4.23698C14.7172 4.59186 14.7559 5.11282 15.2383 5.11282Z" fill="#FECA00"/>
<path d="M13.1287 2.85779L14.4919 3.82556L14.5857 3.89294L14.5964 4.00818L14.8484 6.93298L14.8708 7.19275L14.6091 7.20349H14.6082C14.6072 7.20353 14.6053 7.20438 14.6033 7.20447C14.5992 7.20464 14.5933 7.20412 14.5857 7.20447C14.57 7.20518 14.5471 7.2069 14.5183 7.20837C14.4603 7.21134 14.3782 7.21587 14.2849 7.22205C14.0971 7.23448 13.8665 7.25299 13.6814 7.27869C13.5046 7.30325 13.2594 7.36377 13.0505 7.42126C12.9478 7.44955 12.856 7.47688 12.7908 7.49646C12.7584 7.50618 12.7323 7.51441 12.7146 7.5199C12.7058 7.52262 12.6986 7.52434 12.6941 7.52576C12.6919 7.52643 12.6903 7.52737 12.6892 7.52771H12.6882L12.4451 7.60486L12.3728 7.35974L11.5056 4.41638L11.4646 4.27673L11.5662 4.17224L12.8044 2.88806L12.9539 2.73376L13.1287 2.85779Z" fill="#2E42A5" stroke="white" stroke-width="0.5"/>
<mask id="mask2_1663_1605" style="mask-type:luminance" maskUnits="userSpaceOnUse" x="11" y="2" width="5" height="6">
<path d="M13.1287 2.85779L14.4919 3.82556L14.5857 3.89294L14.5964 4.00818L14.8484 6.93298L14.8708 7.19275L14.6091 7.20349H14.6082C14.6072 7.20353 14.6053 7.20438 14.6033 7.20447C14.5992 7.20464 14.5933 7.20412 14.5857 7.20447C14.57 7.20518 14.5471 7.2069 14.5183 7.20837C14.4603 7.21134 14.3782 7.21587 14.2849 7.22205C14.0971 7.23448 13.8665 7.25299 13.6814 7.27869C13.5046 7.30325 13.2594 7.36377 13.0505 7.42126C12.9478 7.44955 12.856 7.47688 12.7908 7.49646C12.7584 7.50618 12.7323 7.51441 12.7146 7.5199C12.7058 7.52262 12.6986 7.52434 12.6941 7.52576C12.6919 7.52643 12.6903 7.52737 12.6892 7.52771H12.6882L12.4451 7.60486L12.3728 7.35974L11.5056 4.41638L11.4646 4.27673L11.5662 4.17224L12.8044 2.88806L12.9539 2.73376L13.1287 2.85779Z" fill="white" stroke="white" stroke-width="0.5"/>
</mask>
<g mask="url(#mask2_1663_1605)">
<path d="M12.4364 6.63778L12.1859 6.0477C12.7239 5.8122 13.6328 5.66771 14.5891 5.61121L14.6259 6.25269C13.7368 6.30521 12.8958 6.4367 12.4364 6.63778Z" fill="#C51918"/>
<path d="M12.0137 5.21042L11.7632 4.62034C12.3012 4.38484 13.4576 4.19419 14.414 4.1377L14.4507 4.77918C13.5617 4.8317 12.4731 5.00933 12.0137 5.21042Z" fill="#C51918"/>
</g>
<path d="M18.2786 2.85779L16.9163 3.82556L16.8215 3.89294L16.8118 4.00818L16.5588 6.93298L16.5364 7.19275L16.7981 7.20349H16.7991C16.8001 7.20353 16.8019 7.20438 16.804 7.20447C16.8079 7.20464 16.8139 7.20412 16.8215 7.20447C16.8373 7.20519 16.8609 7.20689 16.8899 7.20837C16.9478 7.21134 17.0291 7.21588 17.1223 7.22205C17.3103 7.23449 17.5416 7.25295 17.7268 7.27869C17.9037 7.30329 18.1488 7.36376 18.3577 7.42126C18.4604 7.44955 18.5512 7.47688 18.6165 7.49646C18.6489 7.5062 18.6748 7.51439 18.6926 7.5199C18.7014 7.52262 18.7086 7.52433 18.7131 7.52576C18.7152 7.52642 18.7169 7.52736 18.718 7.52771H18.72L18.969 7.60681L19.0364 7.35486L19.8323 4.40564L19.8684 4.2738L19.7756 4.17224L18.6077 2.89294L18.4592 2.72986L18.2786 2.85779Z" fill="#2E42A5" stroke="white" stroke-width="0.5"/>
<mask id="mask3_1663_1605" style="mask-type:luminance" maskUnits="userSpaceOnUse" x="16" y="2" width="5" height="6">
<path d="M18.2786 2.85779L16.9163 3.82556L16.8215 3.89294L16.8118 4.00818L16.5588 6.93298L16.5364 7.19275L16.7981 7.20349H16.7991C16.8001 7.20353 16.8019 7.20438 16.804 7.20447C16.8079 7.20464 16.8139 7.20412 16.8215 7.20447C16.8373 7.20519 16.8609 7.20689 16.8899 7.20837C16.9478 7.21134 17.0291 7.21588 17.1223 7.22205C17.3103 7.23449 17.5416 7.25295 17.7268 7.27869C17.9037 7.30329 18.1488 7.36376 18.3577 7.42126C18.4604 7.44955 18.5512 7.47688 18.6165 7.49646C18.6489 7.5062 18.6748 7.51439 18.6926 7.5199C18.7014 7.52262 18.7086 7.52433 18.7131 7.52576C18.7152 7.52642 18.7169 7.52736 18.718 7.52771H18.72L18.969 7.60681L19.0364 7.35486L19.8323 4.40564L19.8684 4.2738L19.7756 4.17224L18.6077 2.89294L18.4592 2.72986L18.2786 2.85779Z" fill="white" stroke="white" stroke-width="0.5"/>
</mask>
<g mask="url(#mask3_1663_1605)">
<path fill-rule="evenodd" clip-rule="evenodd" d="M18.3978 6.46648C18.3978 6.46648 18.6918 6.30285 18.7342 6.02697C18.7766 5.75109 19.2313 5.41129 19.0039 5.45173C18.7766 5.49217 18.9066 5.52376 18.5774 5.45173C18.2481 5.3797 17.822 5.33206 17.822 5.12967C17.822 4.92728 18.0338 4.76665 17.8607 4.76665C17.6875 4.76665 17.3182 4.5751 17.3923 4.72151C17.4665 4.86792 17.2217 4.70237 17.3441 5.00633C17.4665 5.3103 17.3182 5.61652 17.3923 5.6971C17.4665 5.77767 17.3441 6.17286 17.3441 6.17286C17.3441 6.17286 17.3891 6.31964 17.4677 6.09979C17.5464 5.87995 17.7185 5.72585 17.6325 5.91282C17.5464 6.09979 17.4366 6.54452 17.5345 6.46648C17.6325 6.38844 17.7298 6.17262 17.7298 6.09979C17.7298 6.02697 17.9769 5.74111 17.9769 5.95698C17.9769 6.17286 17.7444 6.34287 17.8607 6.34287C17.9769 6.34287 18.0421 6.38874 18.1152 6.17286C18.1882 5.95698 18.3657 5.81418 18.4385 5.95698C18.5113 6.09979 18.4952 6.09216 18.3978 6.27932C18.3005 6.46648 18.3978 6.46648 18.3978 6.46648Z" fill="#FECA00"/>
<path d="M18.3031 6.42456C18.3652 6.42456 18.4153 6.47461 18.4154 6.53589C18.4154 6.59725 18.3652 6.64722 18.3031 6.64722C18.241 6.64715 18.1908 6.59721 18.1908 6.53589C18.1909 6.47465 18.2411 6.42462 18.3031 6.42456ZM17.5717 6.25562C17.6338 6.25562 17.684 6.30558 17.684 6.36694C17.6837 6.42811 17.6336 6.47729 17.5717 6.47729C17.5098 6.47719 17.4596 6.42805 17.4594 6.36694C17.4594 6.30564 17.5096 6.25572 17.5717 6.25562ZM17.9506 6.24683C18.0127 6.24683 18.0628 6.29684 18.0629 6.35815C18.0629 6.41952 18.0127 6.46948 17.9506 6.46948C17.8885 6.46938 17.8383 6.41945 17.8383 6.35815C17.8383 6.2969 17.8886 6.24693 17.9506 6.24683ZM17.3607 6.04077C17.4228 6.04077 17.4729 6.09084 17.473 6.1521C17.473 6.21346 17.4228 6.26343 17.3607 6.26343C17.2987 6.26332 17.2484 6.2134 17.2484 6.1521C17.2485 6.0909 17.2988 6.04088 17.3607 6.04077ZM17.598 4.68335C17.7943 4.56243 17.9749 4.52997 18.1332 4.59741C18.2051 4.62807 18.2595 4.6631 18.4008 4.76245C18.4099 4.76891 18.4101 4.76967 18.4193 4.77612C18.5659 4.8789 18.6438 4.92046 18.6918 4.92065V5.1355C18.5821 5.13539 18.4872 5.08372 18.2992 4.9519C18.2899 4.94541 18.2896 4.94549 18.2806 4.93921C18.1534 4.8497 18.1039 4.81715 18.0511 4.79468C17.9636 4.75749 17.851 4.77846 17.7074 4.86694L17.598 4.68335Z" fill="#C51918"/>
</g>
<path d="M21.335 3.45068L19.6768 4.0708L19.5576 4.11475L19.5234 4.23584L18.6777 7.2124L18.6045 7.46729L18.8633 7.5249H18.8643C18.8649 7.52505 18.8659 7.52558 18.8672 7.52588C18.8702 7.52657 18.8756 7.52737 18.8818 7.52881C18.8942 7.53168 18.9127 7.53578 18.9365 7.5415C18.9849 7.55315 19.0557 7.57125 19.1436 7.59424C19.3196 7.64031 19.5643 7.7084 19.8369 7.79639C20.1002 7.88135 20.392 8.00784 20.6211 8.11572C20.7347 8.16921 20.8314 8.21788 20.8994 8.25244C20.9333 8.26964 20.9604 8.28303 20.9785 8.29248C20.9875 8.29718 20.9945 8.30083 20.999 8.30322C21.0013 8.3044 21.0028 8.30558 21.0039 8.30615L21.0049 8.30713L21.2441 8.43506L21.3525 8.18604L22.5908 5.33252L22.6426 5.21436L22.5752 5.10303L21.6357 3.55518L21.5283 3.37842L21.335 3.45068Z" fill="#56C6F5" stroke="white" stroke-width="0.5"/>
<mask id="mask4_1663_1605" style="mask-type:luminance" maskUnits="userSpaceOnUse" x="18" y="3" width="5" height="6">
<path d="M21.335 3.45068L19.6768 4.0708L19.5576 4.11475L19.5234 4.23584L18.6777 7.2124L18.6045 7.46729L18.8633 7.5249H18.8643C18.8649 7.52505 18.8659 7.52558 18.8672 7.52588C18.8702 7.52657 18.8756 7.52737 18.8818 7.52881C18.8942 7.53168 18.9127 7.53578 18.9365 7.5415C18.9849 7.55315 19.0557 7.57125 19.1436 7.59424C19.3196 7.64031 19.5643 7.7084 19.8369 7.79639C20.1002 7.88135 20.392 8.00784 20.6211 8.11572C20.7347 8.16921 20.8314 8.21788 20.8994 8.25244C20.9333 8.26964 20.9604 8.28303 20.9785 8.29248C20.9875 8.29718 20.9945 8.30083 20.999 8.30322C21.0013 8.3044 21.0028 8.30558 21.0039 8.30615L21.0049 8.30713L21.2441 8.43506L21.3525 8.18604L22.5908 5.33252L22.6426 5.21436L22.5752 5.10303L21.6357 3.55518L21.5283 3.37842L21.335 3.45068Z" fill="white" stroke="white" stroke-width="0.5"/>
</mask>
<g mask="url(#mask4_1663_1605)">
<path fill-rule="evenodd" clip-rule="evenodd" d="M21.1274 5.08906L20.9854 5.24786C20.954 5.28299 20.8958 5.26409 20.8911 5.2172L20.8696 5.00529L20.6611 4.96175C20.615 4.95212 20.6022 4.89227 20.6405 4.8647L20.8132 4.74013L20.7467 4.53779C20.732 4.49302 20.7774 4.45208 20.8204 4.4714L21.0147 4.55874L21.1566 4.39994C21.188 4.3648 21.2462 4.38371 21.251 4.4306L21.2725 4.64251L21.481 4.68604C21.5271 4.69567 21.5399 4.75553 21.5016 4.78309L21.3289 4.90767L21.3954 5.11C21.4101 5.15477 21.3647 5.19571 21.3217 5.17639L21.1274 5.08906Z" fill="#FECA00"/>
<path d="M18.9951 6.48749L19.2075 5.65833C20.1483 5.90682 21.129 6.22531 21.8484 6.53328L21.5207 7.32276C20.841 7.03182 19.8985 6.72611 18.9951 6.48749Z" fill="#E31D1C"/>
<path d="M19.2831 5.72186L19.3332 5.51379C20.2351 5.73761 21.1937 6.09473 21.8903 6.42736L21.8005 6.62119C21.1173 6.29496 20.1719 5.94243 19.2831 5.72186Z" fill="white"/>
<path d="M19.0157 6.57647L19.0658 6.36841C19.9677 6.59223 20.8013 6.89592 21.4979 7.22854L21.4082 7.42237C20.725 7.09614 19.9046 6.79705 19.0157 6.57647Z" fill="white"/>
<path d="M19.4229 6.17485L19.616 6.08765C19.6973 6.27796 19.7977 6.31989 19.9656 6.23832C20.3621 6.04566 21.3457 6.31489 21.3457 6.67792C21.3457 6.81955 21.2636 6.90542 21.1383 6.90044C21.0676 6.89764 20.9921 6.86969 20.8813 6.81493C20.8679 6.80829 20.859 6.80384 20.8372 6.79276C20.7148 6.7303 20.7055 6.72574 20.6729 6.71399L20.7427 6.50934C20.7878 6.52562 20.7949 6.5291 20.931 6.59848C20.952 6.60915 20.9601 6.61328 20.9727 6.61948C21.0576 6.66146 21.1144 6.68247 21.1464 6.68374C21.1494 6.68386 21.1348 6.69916 21.1348 6.67792C21.1348 6.51819 20.3342 6.29906 20.0557 6.43439C19.7779 6.56935 19.5509 6.47454 19.4229 6.17485Z" fill="#272727"/>
</g>
</g>
</g>
<defs>
<clipPath id="clip0_1663_1605">
<rect width="32" height="24" fill="white"/>
</clipPath>
</defs>
</svg>
