<svg width="80" height="80" viewBox="0 0 80 80" fill="none" xmlns="http://www.w3.org/2000/svg">
<path d="M59.75 5.75C54.85 4.58333 48.2667 4 40 4C31.7 4 25.1167 4.58333 20.25 5.75C15.0167 7.01667 10.9333 9.1 7.99999 12C5.09999 14.9333 3.01666 19.0167 1.74999 24.25C0.716655 28.65 0.149988 34.4 0.0499878 41.5C0.0499878 41.8333 0.0499878 42.1667 0.0499878 42.5C0.149988 49.6 0.716655 55.35 1.74999 59.75C3.01666 65.0167 5.09999 69.1 7.99999 72C10.9333 74.9333 15.0167 77.0167 20.25 78.25C25.1167 79.4167 31.7 80 40 80C48.2667 80 54.85 79.4167 59.75 78.25C65.0167 77.0167 69.1 74.9333 72 72C74.9333 69.1 77.0167 65.0167 78.25 59.75C79.2833 55.4167 79.8667 49.75 80 42.75C80 42.65 80 42.5667 80 42.5V41.25C79.8667 34.25 79.2833 28.5833 78.25 24.25C77.0167 19.0167 74.9333 14.9333 72 12C69.1 9.1 65.0167 7.01667 59.75 5.75Z" fill="url(#paint0_linear_1_983)"/>
<path d="M40 4C48.2667 4 54.85 4.58333 59.75 5.75C65.0167 7.01667 69.1 9.1 72 12C74.9333 14.9333 77.0167 19.0167 78.25 24.25C79.2833 28.5833 79.8667 34.25 80 41.25C80 40.85 80 40.4333 80 40C80 31.7333 79.4167 25.15 78.25 20.25C77.0167 15.0167 74.9333 10.9333 72 8C69.1 5.1 65.0167 3.01667 59.75 1.75C54.85 0.583333 48.2667 0 40 0C31.7 0 25.1167 0.583333 20.25 1.75C15.0167 3.01667 10.9333 5.1 8 8C5.1 10.9333 3.01667 15.0167 1.75 20.25C0.583333 25.15 0 31.7333 0 40C0 40.5 0.0166659 41 0.0499992 41.5C0.149999 34.4 0.716667 28.65 1.75 24.25C3.01667 19.0167 5.1 14.9333 8 12C10.9333 9.1 15.0167 7.01667 20.25 5.75C25.1167 4.58333 31.7 4 40 4Z" fill="url(#paint1_linear_1_983)"/>
<path d="M25.1615 29.5167C22.3949 29.5167 20.0449 30.5 18.1115 32.4667C16.1449 34.4333 15.1615 36.7833 15.1615 39.5167C15.1615 42.2833 16.1449 44.6333 18.1115 46.5667C20.0449 48.5333 22.3949 49.5167 25.1615 49.5167C27.9282 49.5167 30.2782 48.5333 32.2115 46.5667C34.1782 44.6333 35.1615 42.2833 35.1615 39.5167C35.1615 36.7833 34.1782 34.4333 32.2115 32.4667C30.2782 30.5 27.9282 29.5167 25.1615 29.5167Z" fill="white"/>
<path d="M25.1615 33.5167C23.5282 33.5167 22.1282 34.1167 20.9615 35.3167C19.7615 36.4833 19.1615 37.8833 19.1615 39.5167C19.1615 41.1833 19.7615 42.6 20.9615 43.7667C22.1282 44.9333 23.5282 45.5167 25.1615 45.5167C26.8282 45.5167 28.2449 44.9333 29.4115 43.7667C30.5782 42.6 31.1615 41.1833 31.1615 39.5167C31.1615 37.8833 30.5782 36.4833 29.4115 35.3167C28.2449 34.1167 26.8282 33.5167 25.1615 33.5167Z" fill="#3D465D"/>
<path d="M55.1615 29.5167C52.3949 29.5167 50.0449 30.5 48.1115 32.4667C46.1449 34.4333 45.1615 36.7833 45.1615 39.5167C45.1615 42.2833 46.1449 44.6333 48.1115 46.5667C50.0449 48.5333 52.3949 49.5167 55.1615 49.5167C57.9282 49.5167 60.2782 48.5333 62.2115 46.5667C64.1782 44.6333 65.1615 42.2833 65.1615 39.5167C65.1615 36.7833 64.1782 34.4333 62.2115 32.4667C60.2782 30.5 57.9282 29.5167 55.1615 29.5167Z" fill="white"/>
<path d="M55.1615 33.5167C53.5282 33.5167 52.1282 34.1167 50.9615 35.3167C49.7615 36.4833 49.1615 37.8833 49.1615 39.5167C49.1615 41.1833 49.7615 42.6 50.9615 43.7667C52.1282 44.9333 53.5282 45.5167 55.1615 45.5167C56.8282 45.5167 58.2449 44.9333 59.4115 43.7667C60.5782 42.6 61.1615 41.1833 61.1615 39.5167C61.1615 37.8833 60.5782 36.4833 59.4115 35.3167C58.2449 34.1167 56.8282 33.5167 55.1615 33.5167Z" fill="#3D465D"/>
<path d="M13.3115 33.9167C13.5449 34.3833 13.9449 34.6833 14.5115 34.8167L33.8115 40.0167C34.3449 40.15 34.8615 40.0833 35.3615 39.8167C35.8282 39.55 36.1282 39.1333 36.2615 38.5667L37.3115 34.7167C37.4449 34.15 37.3782 33.65 37.1115 33.2167C36.8115 32.7167 36.3949 32.4 35.8615 32.2667L16.5615 27.0667C15.9949 26.9333 15.4949 27.0167 15.0615 27.3167C14.5615 27.55 14.2449 27.95 14.1115 28.5167L13.0615 32.3667C12.9282 32.9333 13.0115 33.45 13.3115 33.9167Z" fill="#3D465D"/>
<path d="M44.4616 26.2167C43.9282 26.3833 43.5282 26.7167 43.2616 27.2167C42.9616 27.65 42.8782 28.15 43.0116 28.7167L44.0616 32.5667C44.1949 33.1333 44.5116 33.55 45.0116 33.8167C45.4782 34.0833 45.9782 34.1333 46.5116 33.9667L65.8116 28.8167C66.3782 28.6833 66.7949 28.3667 67.0616 27.8667C67.3282 27.4333 67.3949 26.9333 67.2616 26.3667L66.2115 22.5167C66.0782 21.95 65.7782 21.5333 65.3116 21.2667C64.8449 21 64.3282 20.9333 63.7616 21.0667L44.4616 26.2167Z" fill="#3D465D"/>
<path d="M50.1115 53.6667C49.6449 53.3667 49.1282 53.3 48.5615 53.4667C48.0282 53.6 47.6115 53.8833 47.3115 54.3167C47.0449 54.6833 46.6615 55.0333 46.1615 55.3667C44.9282 56.1333 43.4782 56.5167 41.8115 56.5167C41.0449 56.5167 40.3282 56.45 39.6615 56.3167C39.0949 56.2167 38.5782 56.3167 38.1115 56.6167C37.6449 56.85 37.3449 57.25 37.2115 57.8167C37.0782 58.3167 37.1782 58.8 37.5115 59.2667C37.7782 59.6667 38.2115 59.9333 38.8115 60.0667C39.7115 60.2667 40.7115 60.3667 41.8115 60.3667C44.3782 60.3667 46.5949 59.7667 48.4615 58.5667L48.4115 58.6167C49.5449 57.9167 50.3782 57.1333 50.9115 56.2667C51.1782 55.8 51.2449 55.3167 51.1115 54.8167C50.9449 54.2833 50.6115 53.9 50.1115 53.6667Z" fill="#3D465D"/>
<defs>
<linearGradient id="paint0_linear_1_983" x1="-140" y1="-1.09798e-07" x2="-140" y2="80" gradientUnits="userSpaceOnUse">
<stop stop-color="#7BAAEB"/>
<stop offset="1" stop-color="#6C75E9"/>
</linearGradient>
<linearGradient id="paint1_linear_1_983" x1="-140.25" y1="-0.25" x2="-140.25" y2="43.25" gradientUnits="userSpaceOnUse">
<stop stop-color="#95C2F0"/>
<stop offset="1" stop-color="#6B8EE9"/>
</linearGradient>
</defs>
</svg>
