<svg width="32" height="24" viewBox="0 0 32 24" fill="none" xmlns="http://www.w3.org/2000/svg">
<g clip-path="url(#clip0_1665_546)">
<rect width="32" height="24" fill="white"/>
<path fill-rule="evenodd" clip-rule="evenodd" d="M8 0H32V24H8V0Z" fill="#EF0000"/>
<path fill-rule="evenodd" clip-rule="evenodd" d="M0 0H12V24H0V0Z" fill="#2F8D00"/>
<mask id="mask0_1665_546" style="mask-type:luminance" maskUnits="userSpaceOnUse" x="4" y="4" width="16" height="16">
<path fill-rule="evenodd" clip-rule="evenodd" d="M11.9047 19.8072C7.64423 19.8072 4.19043 16.3118 4.19043 12C4.19043 7.6882 7.64423 4.19278 11.9047 4.19278C16.1652 4.19278 19.619 7.6882 19.619 12C19.619 16.3118 16.1652 19.8072 11.9047 19.8072Z" fill="white"/>
</mask>
<g mask="url(#mask0_1665_546)">
<path fill-rule="evenodd" clip-rule="evenodd" d="M11.4285 4H12.4285V6.6988H11.4285V4Z" fill="#FFE017"/>
<path fill-rule="evenodd" clip-rule="evenodd" d="M11.4285 17.494H12.4285V20H11.4285V17.494Z" fill="#FFE017"/>
<path d="M4.31437 12.4038L4.03479 11.6865C7.11998 10.4548 9.44854 9.6605 11.0285 9.30252C13.3466 8.77732 15.8937 8.38873 18.6699 8.13647L18.738 8.90447C15.9937 9.15383 13.4793 9.53743 11.195 10.055C9.66202 10.4023 7.3658 11.1856 4.31437 12.4038Z" fill="#FFE017"/>
<path d="M19.1408 7.6639L18.914 8.40001C16.5822 7.66389 14.6828 7.34748 13.2228 7.44548L13.1724 6.67609C14.74 6.57086 16.7271 6.90189 19.1408 7.6639Z" fill="#FFE017"/>
<path d="M19.9476 11.7798L19.5166 12.4156C18.3279 11.5904 16.8635 11.1758 15.1133 11.1758V10.4048C17.0107 10.4048 18.6254 10.8618 19.9476 11.7798Z" fill="#FFE017"/>
<path d="M19.302 12.0106L19.499 12.7554C16.9364 13.4496 14.5304 13.8434 12.281 13.9361C10.016 14.0295 7.37616 13.6343 4.35913 12.7534L4.57031 12.0126C7.51402 12.872 10.0747 13.2554 12.25 13.1657C14.4408 13.0754 16.7915 12.6906 19.302 12.0106Z" fill="#FFE017"/>
<path d="M19.0117 15.6359L17.8073 16.8706C15.5186 14.584 13.5037 12.949 11.775 11.9667C10.0166 10.9675 7.72366 9.95293 4.89954 8.92703L5.47868 7.2941C8.38609 8.35025 10.7634 9.40215 12.6142 10.4539C14.4946 11.5224 16.623 13.2494 19.0117 15.6359Z" fill="#FFE017"/>
<path d="M5.4583 16.3353L5.00244 15.7175C5.0661 15.6694 5.17969 15.5891 5.33619 15.4875C5.59459 15.3196 5.88153 15.152 6.19025 14.9954C7.04055 14.5641 7.89349 14.2947 8.70701 14.27C8.74679 14.2688 8.78641 14.2682 8.82586 14.2682V15.0393C8.79408 15.0393 8.76209 15.0398 8.72989 15.0407C8.04432 15.0616 7.29145 15.2993 6.53166 15.6847C6.24846 15.8284 5.98459 15.9825 5.74777 16.1364C5.66534 16.1899 5.59241 16.2394 5.52991 16.2836C5.49348 16.3093 5.4693 16.327 5.4583 16.3353Z" fill="#FFE017"/>
<path d="M5.81213 16.6026L6.004 15.8563C8.54412 16.5253 10.5024 16.8586 11.8691 16.8586C13.2307 16.8586 15.2573 16.4654 17.9357 15.6763L18.1487 16.4166C15.4069 17.2245 13.3181 17.6297 11.8691 17.6297C10.4252 17.6297 8.40948 17.2866 5.81213 16.6026Z" fill="#FFE017"/>
<path d="M4.82239 9.69443L6.02946 8.46249L7.79679 10.2361L6.58971 11.4681L4.82239 9.69443Z" fill="#FFE017"/>
<path d="M14.8359 15.8478L15.7338 14.3698L18.5374 16.1143L17.6396 17.5922L14.8359 15.8478Z" fill="#FFE017"/>
</g>
<path d="M11.9043 4.19278C16.1648 4.19278 19.6191 7.68858 19.6191 12.0004C19.6189 16.312 16.1647 19.807 11.9043 19.807C7.64413 19.8068 4.19064 16.3119 4.19043 12.0004C4.19043 7.68872 7.64401 4.19301 11.9043 4.19278ZM12 5.34903C8.3182 5.34903 5.33316 8.36998 5.33301 12.0961C5.33301 15.8224 8.3181 18.8432 12 18.8432C15.6819 18.8431 18.667 15.8223 18.667 12.0961C18.6668 8.36999 15.6818 5.34906 12 5.34903Z" fill="#F9E813"/>
<path d="M7.65662 7.18527V13.446C8.06875 15.9241 9.45721 17.1631 11.822 17.1631C14.1868 17.1631 15.5753 15.9241 15.9874 13.446V7.18527H7.65662Z" fill="white"/>
<path d="M7.08521 6.60696H16.5588V13.4943L16.5509 13.542C16.0933 16.2936 14.4709 17.7414 11.822 17.7414C9.17313 17.7414 7.55077 16.2936 7.09313 13.542L7.08521 13.4943V6.60696Z" fill="#C51918"/>
<path d="M9.2522 8.71069H14.3919V13.1516C14.3919 13.1516 14.0105 15.4449 11.8221 15.4449C9.6336 15.4449 9.2522 13.1516 9.2522 13.1516V8.71069Z" fill="#F7FCFF"/>
<path fill-rule="evenodd" clip-rule="evenodd" d="M8 7.08435H8.72289V7.56628H8V7.08435Z" fill="#F9E813"/>
<path fill-rule="evenodd" clip-rule="evenodd" d="M7.61902 7.27713H8.95235V7.51809H7.61902V7.27713Z" fill="#060101"/>
<path fill-rule="evenodd" clip-rule="evenodd" d="M7.61902 7.46988H8.34191V7.71084H7.61902V7.46988Z" fill="#F9E813"/>
<path fill-rule="evenodd" clip-rule="evenodd" d="M8.38098 7.46988H9.10387V7.71084H8.38098V7.46988Z" fill="#F9E813"/>
<path fill-rule="evenodd" clip-rule="evenodd" d="M7.61902 8.04822H8.10095V8.77111H7.61902V8.04822Z" fill="#F9E813"/>
<path fill-rule="evenodd" clip-rule="evenodd" d="M8.57141 8.04822H9.05334V8.77111H8.57141V8.04822Z" fill="#F9E813"/>
<path fill-rule="evenodd" clip-rule="evenodd" d="M8.19043 8.04822H8.43139V8.77111H8.19043V8.04822Z" fill="#F9E813"/>
<path fill-rule="evenodd" clip-rule="evenodd" d="M7.61902 7.85544H8.95235V8.0964H7.61902V7.85544Z" fill="#060101"/>
<path fill-rule="evenodd" clip-rule="evenodd" d="M7.61902 8.43375H8.95235V8.67471H7.61902V8.43375Z" fill="#060101"/>
<path fill-rule="evenodd" clip-rule="evenodd" d="M7.80945 7.66266H8.05041V7.90362H7.80945V7.66266Z" fill="#F9E813"/>
<path fill-rule="evenodd" clip-rule="evenodd" d="M8.57141 7.66266H8.81237V7.90362H8.57141V7.66266Z" fill="#F9E813"/>
<path fill-rule="evenodd" clip-rule="evenodd" d="M8.19043 7.46988H8.43139V7.95181H8.19043V7.46988Z" fill="#F9E813"/>
<path fill-rule="evenodd" clip-rule="evenodd" d="M11.619 7.08435H12.3419V7.56628H11.619V7.08435Z" fill="#F9E813"/>
<path fill-rule="evenodd" clip-rule="evenodd" d="M11.238 7.27713H12.5714V7.51809H11.238V7.27713Z" fill="#060101"/>
<path fill-rule="evenodd" clip-rule="evenodd" d="M11.238 7.46988H11.9609V7.71084H11.238V7.46988Z" fill="#F9E813"/>
<path fill-rule="evenodd" clip-rule="evenodd" d="M12 7.46988H12.7229V7.71084H12V7.46988Z" fill="#F9E813"/>
<path fill-rule="evenodd" clip-rule="evenodd" d="M11.238 8.04822H11.72V8.77111H11.238V8.04822Z" fill="#F9E813"/>
<path fill-rule="evenodd" clip-rule="evenodd" d="M12.1904 8.04822H12.6724V8.77111H12.1904V8.04822Z" fill="#F9E813"/>
<path fill-rule="evenodd" clip-rule="evenodd" d="M11.8094 8.04822H12.0504V8.77111H11.8094V8.04822Z" fill="#F9E813"/>
<path fill-rule="evenodd" clip-rule="evenodd" d="M11.238 7.85544H12.5714V8.0964H11.238V7.85544Z" fill="#060101"/>
<path fill-rule="evenodd" clip-rule="evenodd" d="M11.238 8.43375H12.5714V8.67471H11.238V8.43375Z" fill="#060101"/>
<path fill-rule="evenodd" clip-rule="evenodd" d="M11.4285 7.66266H11.6694V7.90362H11.4285V7.66266Z" fill="#F9E813"/>
<path fill-rule="evenodd" clip-rule="evenodd" d="M12.1904 7.66266H12.4314V7.90362H12.1904V7.66266Z" fill="#F9E813"/>
<path fill-rule="evenodd" clip-rule="evenodd" d="M11.8094 7.46988H12.0504V7.95181H11.8094V7.46988Z" fill="#F9E813"/>
<path fill-rule="evenodd" clip-rule="evenodd" d="M15.0476 7.08435H15.7705V7.56628H15.0476V7.08435Z" fill="#F9E813"/>
<path fill-rule="evenodd" clip-rule="evenodd" d="M14.6666 7.27713H16V7.51809H14.6666V7.27713Z" fill="#060101"/>
<path fill-rule="evenodd" clip-rule="evenodd" d="M14.6666 7.46988H15.3895V7.71084H14.6666V7.46988Z" fill="#F9E813"/>
<path fill-rule="evenodd" clip-rule="evenodd" d="M15.4286 7.46988H16.1515V7.71084H15.4286V7.46988Z" fill="#F9E813"/>
<path fill-rule="evenodd" clip-rule="evenodd" d="M14.6666 8.04822H15.1486V8.77111H14.6666V8.04822Z" fill="#F9E813"/>
<path fill-rule="evenodd" clip-rule="evenodd" d="M15.619 8.04822H16.1009V8.77111H15.619V8.04822Z" fill="#F9E813"/>
<path fill-rule="evenodd" clip-rule="evenodd" d="M15.238 8.04822H15.479V8.77111H15.238V8.04822Z" fill="#F9E813"/>
<path fill-rule="evenodd" clip-rule="evenodd" d="M14.6666 7.85544H16V8.0964H14.6666V7.85544Z" fill="#060101"/>
<path fill-rule="evenodd" clip-rule="evenodd" d="M14.6666 8.43375H16V8.67471H14.6666V8.43375Z" fill="#060101"/>
<path fill-rule="evenodd" clip-rule="evenodd" d="M14.8571 7.66266H15.098V7.90362H14.8571V7.66266Z" fill="#F9E813"/>
<path fill-rule="evenodd" clip-rule="evenodd" d="M15.619 7.66266H15.86V7.90362H15.619V7.66266Z" fill="#F9E813"/>
<path fill-rule="evenodd" clip-rule="evenodd" d="M15.238 7.46988H15.479V7.95181H15.238V7.46988Z" fill="#F9E813"/>
<path fill-rule="evenodd" clip-rule="evenodd" d="M15.0476 10.5542H15.7705V11.0362H15.0476V10.5542Z" fill="#F9E813"/>
<path fill-rule="evenodd" clip-rule="evenodd" d="M14.6666 10.747H16V10.988H14.6666V10.747Z" fill="#060101"/>
<path fill-rule="evenodd" clip-rule="evenodd" d="M14.6666 10.9398H15.3895V11.1807H14.6666V10.9398Z" fill="#F9E813"/>
<path fill-rule="evenodd" clip-rule="evenodd" d="M15.4286 10.9398H16.1515V11.1807H15.4286V10.9398Z" fill="#F9E813"/>
<path fill-rule="evenodd" clip-rule="evenodd" d="M14.6666 11.5181H15.1486V12.241H14.6666V11.5181Z" fill="#F9E813"/>
<path fill-rule="evenodd" clip-rule="evenodd" d="M15.619 11.5181H16.1009V12.241H15.619V11.5181Z" fill="#F9E813"/>
<path fill-rule="evenodd" clip-rule="evenodd" d="M15.238 11.5181H15.479V12.241H15.238V11.5181Z" fill="#F9E813"/>
<path fill-rule="evenodd" clip-rule="evenodd" d="M14.6666 11.3253H16V11.5663H14.6666V11.3253Z" fill="#060101"/>
<path fill-rule="evenodd" clip-rule="evenodd" d="M14.6666 11.9036H16V12.1446H14.6666V11.9036Z" fill="#060101"/>
<path fill-rule="evenodd" clip-rule="evenodd" d="M14.8571 11.1325H15.098V11.3735H14.8571V11.1325Z" fill="#F9E813"/>
<path fill-rule="evenodd" clip-rule="evenodd" d="M15.619 11.1325H15.86V11.3735H15.619V11.1325Z" fill="#F9E813"/>
<path fill-rule="evenodd" clip-rule="evenodd" d="M15.238 10.9398H15.479V11.4217H15.238V10.9398Z" fill="#F9E813"/>
<path fill-rule="evenodd" clip-rule="evenodd" d="M8 10.5542H8.72289V11.0362H8V10.5542Z" fill="#F9E813"/>
<path fill-rule="evenodd" clip-rule="evenodd" d="M7.61902 10.747H8.95235V10.988H7.61902V10.747Z" fill="#060101"/>
<path fill-rule="evenodd" clip-rule="evenodd" d="M7.61902 10.9398H8.34191V11.1807H7.61902V10.9398Z" fill="#F9E813"/>
<path fill-rule="evenodd" clip-rule="evenodd" d="M8.38098 10.9398H9.10387V11.1807H8.38098V10.9398Z" fill="#F9E813"/>
<path fill-rule="evenodd" clip-rule="evenodd" d="M7.61902 11.5181H8.10095V12.241H7.61902V11.5181Z" fill="#F9E813"/>
<path fill-rule="evenodd" clip-rule="evenodd" d="M8.57141 11.5181H9.05334V12.241H8.57141V11.5181Z" fill="#F9E813"/>
<path fill-rule="evenodd" clip-rule="evenodd" d="M8.19043 11.5181H8.43139V12.241H8.19043V11.5181Z" fill="#F9E813"/>
<path fill-rule="evenodd" clip-rule="evenodd" d="M7.61902 11.3253H8.95235V11.5663H7.61902V11.3253Z" fill="#060101"/>
<path fill-rule="evenodd" clip-rule="evenodd" d="M7.61902 11.9036H8.95235V12.1446H7.61902V11.9036Z" fill="#060101"/>
<path fill-rule="evenodd" clip-rule="evenodd" d="M7.80945 11.1325H8.05041V11.3735H7.80945V11.1325Z" fill="#F9E813"/>
<path fill-rule="evenodd" clip-rule="evenodd" d="M8.57141 11.1325H8.81237V11.3735H8.57141V11.1325Z" fill="#F9E813"/>
<path fill-rule="evenodd" clip-rule="evenodd" d="M8.19043 10.9398H8.43139V11.4217H8.19043V10.9398Z" fill="#F9E813"/>
<path fill-rule="evenodd" clip-rule="evenodd" d="M8.46375 14.904L8.92841 14.3502L9.29759 14.66L8.83292 15.2137L8.46375 14.904Z" fill="#F9E813"/>
<path fill-rule="evenodd" clip-rule="evenodd" d="M8.36658 15.3197L9.22363 14.2983L9.40822 14.4532L8.55117 15.4746L8.36658 15.3197Z" fill="#060101"/>
<path fill-rule="evenodd" clip-rule="evenodd" d="M8.51416 15.4436L8.97883 14.8899L9.16341 15.0448L8.69875 15.5985L8.51416 15.4436Z" fill="#F9E813"/>
<path fill-rule="evenodd" clip-rule="evenodd" d="M9.00391 14.86L9.46857 14.3062L9.65316 14.4611L9.1885 15.0148L9.00391 14.86Z" fill="#F9E813"/>
<path fill-rule="evenodd" clip-rule="evenodd" d="M8.95728 15.8154L9.26705 15.4462L9.82082 15.9109L9.51104 16.28L8.95728 15.8154Z" fill="#F9E813"/>
<path fill-rule="evenodd" clip-rule="evenodd" d="M9.56946 15.0858L9.87924 14.7166L10.433 15.1813L10.1232 15.5505L9.56946 15.0858Z" fill="#F9E813"/>
<path fill-rule="evenodd" clip-rule="evenodd" d="M9.32458 15.3776L9.47947 15.193L10.0332 15.6577L9.87835 15.8423L9.32458 15.3776Z" fill="#F9E813"/>
<path fill-rule="evenodd" clip-rule="evenodd" d="M8.80957 15.6914L9.66662 14.67L9.85121 14.8249L8.99416 15.8463L8.80957 15.6914Z" fill="#060101"/>
<path fill-rule="evenodd" clip-rule="evenodd" d="M9.25256 16.0632L10.1096 15.0418L10.2942 15.1967L9.43715 16.2181L9.25256 16.0632Z" fill="#060101"/>
<path fill-rule="evenodd" clip-rule="evenodd" d="M8.7843 15.4216L8.93919 15.237L9.12378 15.3919L8.96889 15.5765L8.7843 15.4216Z" fill="#F9E813"/>
<path fill-rule="evenodd" clip-rule="evenodd" d="M9.27405 14.838L9.42894 14.6534L9.61353 14.8083L9.45864 14.9929L9.27405 14.838Z" fill="#F9E813"/>
<path fill-rule="evenodd" clip-rule="evenodd" d="M8.88147 15.0059L9.03636 14.8213L9.40554 15.1311L9.25065 15.3157L8.88147 15.0059Z" fill="#F9E813"/>
<path fill-rule="evenodd" clip-rule="evenodd" d="M14.9784 14.4662L15.4431 15.02L15.0739 15.3298L14.6092 14.776L14.9784 14.4662Z" fill="#F9E813"/>
<path fill-rule="evenodd" clip-rule="evenodd" d="M14.5858 14.2983L15.4429 15.3197L15.2583 15.4746L14.4012 14.4532L14.5858 14.2983Z" fill="#060101"/>
<path fill-rule="evenodd" clip-rule="evenodd" d="M14.4382 14.4222L14.9029 14.976L14.7183 15.1309L14.2536 14.5771L14.4382 14.4222Z" fill="#F9E813"/>
<path fill-rule="evenodd" clip-rule="evenodd" d="M14.928 15.0059L15.3926 15.5597L15.2081 15.7145L14.7434 15.1608L14.928 15.0059Z" fill="#F9E813"/>
<path fill-rule="evenodd" clip-rule="evenodd" d="M13.9951 14.794L14.3049 15.1632L13.7511 15.6278L13.4414 15.2586L13.9951 14.794Z" fill="#F9E813"/>
<path fill-rule="evenodd" clip-rule="evenodd" d="M14.6073 15.5235L14.9171 15.8927L14.3633 16.3574L14.0535 15.9882L14.6073 15.5235Z" fill="#F9E813"/>
<path fill-rule="evenodd" clip-rule="evenodd" d="M14.3624 15.2317L14.5173 15.4163L13.9635 15.8809L13.8087 15.6964L14.3624 15.2317Z" fill="#F9E813"/>
<path fill-rule="evenodd" clip-rule="evenodd" d="M14.1428 14.67L14.9999 15.6914L14.8153 15.8463L13.9582 14.8249L14.1428 14.67Z" fill="#060101"/>
<path fill-rule="evenodd" clip-rule="evenodd" d="M13.6998 15.0418L14.5569 16.0632L14.3723 16.2181L13.5152 15.1967L13.6998 15.0418Z" fill="#060101"/>
<path fill-rule="evenodd" clip-rule="evenodd" d="M14.413 14.692L14.5679 14.8766L14.3833 15.0315L14.2284 14.8469L14.413 14.692Z" fill="#F9E813"/>
<path fill-rule="evenodd" clip-rule="evenodd" d="M14.9027 15.2757L15.0576 15.4603L14.873 15.6152L14.7181 15.4306L14.9027 15.2757Z" fill="#F9E813"/>
<path fill-rule="evenodd" clip-rule="evenodd" d="M14.8055 14.86L14.9604 15.0445L14.5913 15.3543L14.4364 15.1697L14.8055 14.86Z" fill="#F9E813"/>
<path d="M12.5583 10.1667C12.555 10.1831 12.4508 10.6628 11.8982 10.6628C11.3455 10.6628 11.2414 10.183 11.238 10.1667V9.20483H12.5583V10.1667ZM11.6189 10.1687C11.5139 10.1688 11.4287 10.2548 11.4285 10.3611C11.4285 10.4675 11.5137 10.5544 11.6189 10.5544C11.7241 10.5544 11.8093 10.4675 11.8093 10.3611C11.8091 10.2548 11.724 10.1687 11.6189 10.1687ZM12.1902 10.1687C12.0852 10.1688 12 10.2549 11.9998 10.3611C11.9998 10.4675 12.0851 10.5543 12.1902 10.5544C12.2954 10.5544 12.3806 10.4675 12.3806 10.3611C12.3804 10.2548 12.2953 10.1687 12.1902 10.1687ZM11.905 9.78296C11.7998 9.78296 11.7146 9.86985 11.7146 9.97632C11.7148 10.0826 11.8 10.1687 11.905 10.1687C12.0099 10.1685 12.0952 10.0825 12.0955 9.97632C12.0955 9.86996 12.0101 9.78314 11.905 9.78296ZM11.6189 9.39722C11.5137 9.39727 11.4285 9.48414 11.4285 9.59058C11.4286 9.69692 11.5138 9.78291 11.6189 9.78296C11.724 9.78296 11.8092 9.69695 11.8093 9.59058C11.8093 9.48411 11.7241 9.39722 11.6189 9.39722ZM12.1902 9.39722C12.0851 9.39734 11.9998 9.48419 11.9998 9.59058C11.9999 9.69687 12.0852 9.78283 12.1902 9.78296C12.2953 9.78296 12.3805 9.69695 12.3806 9.59058C12.3806 9.48411 12.2954 9.39722 12.1902 9.39722Z" fill="#013399"/>
<path d="M12.5583 12.2872C12.555 12.3036 12.4508 12.7833 11.8982 12.7833C11.3455 12.7833 11.2414 12.3035 11.238 12.2872V11.3253H12.5583V12.2872ZM11.6189 12.2892C11.5139 12.2892 11.4287 12.3753 11.4285 12.4816C11.4285 12.588 11.5137 12.6749 11.6189 12.6749C11.7241 12.6749 11.8093 12.588 11.8093 12.4816C11.8091 12.3753 11.724 12.2892 11.6189 12.2892ZM12.1902 12.2892C12.0852 12.2893 12 12.3754 11.9998 12.4816C11.9998 12.588 12.0851 12.6748 12.1902 12.6749C12.2954 12.6749 12.3806 12.588 12.3806 12.4816C12.3804 12.3753 12.2953 12.2892 12.1902 12.2892ZM11.905 11.9034C11.7998 11.9034 11.7146 11.9903 11.7146 12.0968C11.7148 12.2031 11.8 12.2892 11.905 12.2892C12.0099 12.289 12.0952 12.203 12.0955 12.0968C12.0955 11.9904 12.0101 11.9036 11.905 11.9034ZM11.6189 11.5177C11.5137 11.5178 11.4285 11.6046 11.4285 11.7111C11.4286 11.8174 11.5138 11.9034 11.6189 11.9034C11.724 11.9034 11.8092 11.8174 11.8093 11.7111C11.8093 11.6046 11.7241 11.5177 11.6189 11.5177ZM12.1902 11.5177C12.0851 11.5178 11.9998 11.6047 11.9998 11.7111C11.9999 11.8174 12.0852 11.9033 12.1902 11.9034C12.2953 11.9034 12.3805 11.8174 12.3806 11.7111C12.3806 11.6046 12.2954 11.5177 12.1902 11.5177Z" fill="#013399"/>
<path d="M14.2726 12.2872C14.2692 12.3036 14.165 12.7833 13.6124 12.7833C13.0598 12.7833 12.9556 12.3035 12.9523 12.2872V11.3253H14.2726V12.2872ZM13.3331 12.2892C13.2281 12.2892 13.1429 12.3753 13.1427 12.4816C13.1427 12.588 13.228 12.6749 13.3331 12.6749C13.4383 12.6749 13.5236 12.588 13.5236 12.4816C13.5234 12.3753 13.4382 12.2892 13.3331 12.2892ZM13.9044 12.2892C13.7995 12.2893 13.7142 12.3754 13.714 12.4816C13.714 12.588 13.7993 12.6748 13.9044 12.6749C14.0096 12.6749 14.0948 12.588 14.0948 12.4816C14.0946 12.3753 14.0095 12.2892 13.9044 12.2892ZM13.6193 11.9034C13.5141 11.9034 13.4288 11.9903 13.4288 12.0968C13.429 12.2031 13.5142 12.2892 13.6193 12.2892C13.7242 12.289 13.8095 12.203 13.8097 12.0968C13.8097 11.9904 13.7243 11.9036 13.6193 11.9034ZM13.3331 11.5177C13.228 11.5178 13.1427 11.6046 13.1427 11.7111C13.1428 11.8174 13.228 11.9034 13.3331 11.9034C13.4383 11.9034 13.5235 11.8174 13.5236 11.7111C13.5236 11.6046 13.4383 11.5177 13.3331 11.5177ZM13.9044 11.5177C13.7993 11.5178 13.714 11.6047 13.714 11.7111C13.7141 11.8174 13.7994 11.9033 13.9044 11.9034C14.0096 11.9034 14.0947 11.8174 14.0948 11.7111C14.0948 11.6046 14.0096 11.5177 13.9044 11.5177Z" fill="#013399"/>
<path d="M10.8441 12.2872C10.8407 12.3036 10.7366 12.7833 10.184 12.7833C9.63131 12.7833 9.52717 12.3035 9.5238 12.2872V11.3253H10.8441V12.2872ZM9.90466 12.2892C9.79963 12.2892 9.71443 12.3753 9.71423 12.4816C9.71423 12.588 9.79951 12.6749 9.90466 12.6749C10.0099 12.6749 10.0951 12.588 10.0951 12.4816C10.0949 12.3753 10.0097 12.2892 9.90466 12.2892ZM10.476 12.2892C10.371 12.2893 10.2857 12.3754 10.2855 12.4816C10.2855 12.588 10.3709 12.6748 10.476 12.6749C10.5811 12.6749 10.6664 12.588 10.6664 12.4816C10.6662 12.3753 10.581 12.2892 10.476 12.2892ZM10.1908 11.9034C10.0856 11.9034 10.0004 11.9903 10.0004 12.0968C10.0006 12.2031 10.0857 12.2892 10.1908 12.2892C10.2957 12.289 10.381 12.203 10.3812 12.0968C10.3812 11.9904 10.2958 11.9036 10.1908 11.9034ZM9.90466 11.5177C9.79951 11.5178 9.71423 11.6046 9.71423 11.7111C9.71434 11.8174 9.79957 11.9034 9.90466 11.9034C10.0098 11.9034 10.095 11.8174 10.0951 11.7111C10.0951 11.6046 10.0099 11.5177 9.90466 11.5177ZM10.476 11.5177C10.3709 11.5178 10.2855 11.6047 10.2855 11.7111C10.2856 11.8174 10.3709 11.9033 10.476 11.9034C10.5811 11.9034 10.6663 11.8174 10.6664 11.7111C10.6664 11.6046 10.5811 11.5177 10.476 11.5177Z" fill="#013399"/>
<path d="M12.5583 14.4077C12.555 14.4241 12.4508 14.9038 11.8982 14.9038C11.3455 14.9038 11.2414 14.424 11.238 14.4077V13.4458H12.5583V14.4077ZM11.6189 14.4097C11.5139 14.4097 11.4287 14.4958 11.4285 14.6021C11.4285 14.7085 11.5137 14.7954 11.6189 14.7954C11.7241 14.7954 11.8093 14.7085 11.8093 14.6021C11.8091 14.4958 11.724 14.4097 11.6189 14.4097ZM12.1902 14.4097C12.0852 14.4098 12 14.4958 11.9998 14.6021C11.9998 14.7084 12.0851 14.7953 12.1902 14.7954C12.2954 14.7954 12.3806 14.7085 12.3806 14.6021C12.3804 14.4958 12.2953 14.4097 12.1902 14.4097ZM11.905 14.0239C11.7998 14.0239 11.7146 14.1108 11.7146 14.2173C11.7148 14.3236 11.8 14.4097 11.905 14.4097C12.0099 14.4095 12.0952 14.3235 12.0955 14.2173C12.0955 14.1109 12.0101 14.0241 11.905 14.0239ZM11.6189 13.6382C11.5137 13.6382 11.4285 13.7251 11.4285 13.8315C11.4286 13.9379 11.5138 14.0239 11.6189 14.0239C11.724 14.0239 11.8092 13.9379 11.8093 13.8315C11.8093 13.7251 11.7241 13.6382 11.6189 13.6382ZM12.1902 13.6382C12.0851 13.6383 11.9998 13.7252 11.9998 13.8315C11.9999 13.9378 12.0852 14.0238 12.1902 14.0239C12.2953 14.0239 12.3805 13.9379 12.3806 13.8315C12.3806 13.7251 12.2954 13.6382 12.1902 13.6382Z" fill="#013399"/>
</g>
<defs>
<clipPath id="clip0_1665_546">
<rect width="32" height="24" fill="white"/>
</clipPath>
</defs>
</svg>
