<svg width="32" height="24" viewBox="0 0 32 24" fill="none" xmlns="http://www.w3.org/2000/svg">
<g clip-path="url(#clip0_1663_1477)">
<rect width="32" height="24" fill="white"/>
<path fill-rule="evenodd" clip-rule="evenodd" d="M0 0V24H32V0H0Z" fill="#FFB400"/>
<mask id="mask0_1663_1477" style="mask-type:luminance" maskUnits="userSpaceOnUse" x="0" y="0" width="32" height="24">
<path fill-rule="evenodd" clip-rule="evenodd" d="M0 0V24H32V0H0Z" fill="white"/>
</mask>
<g mask="url(#mask0_1663_1477)">
<path fill-rule="evenodd" clip-rule="evenodd" d="M0 0V6H32V0H0Z" fill="#C51918"/>
<path fill-rule="evenodd" clip-rule="evenodd" d="M0 18V24H32V18H0Z" fill="#C51918"/>
<rect x="5.00806" y="10.272" width="1.12" height="5.824" fill="#F1F9FF"/>
<path d="M6.57568 9.82349H6.23975V10.2717H4.896V9.82349H4.56006V9.26392H6.57568V9.82349Z" fill="#C88A02"/>
<path fill-rule="evenodd" clip-rule="evenodd" d="M6.24006 16.4319H6.57606V16.9919H4.56006V16.4319H4.89606V15.9839H6.24006V16.4319Z" fill="#C88A02"/>
<path fill-rule="evenodd" clip-rule="evenodd" d="M5.56806 9.37592C5.81179 9.37592 5.83656 9.28414 5.98036 9.14707C6.09201 9.04063 6.35206 8.90862 6.35206 8.75992C6.35206 8.41971 6.00105 8.14392 5.56806 8.14392C5.13507 8.14392 4.78406 8.41971 4.78406 8.75992C4.78406 8.92559 4.96314 9.03636 5.09854 9.14707C5.2412 9.26371 5.34592 9.37592 5.56806 9.37592Z" fill="#AD1619"/>
<path fill-rule="evenodd" clip-rule="evenodd" d="M4.56006 16.9919H6.57606V17.8879C6.57606 17.8879 6.32406 17.7759 6.07206 17.7759C5.82006 17.7759 5.56806 17.8879 5.56806 17.8879C5.56806 17.8879 5.31606 17.7759 5.06406 17.7759C4.81206 17.7759 4.56006 17.8879 4.56006 17.8879V16.9919Z" fill="#005BBF"/>
<mask id="mask1_1663_1477" style="mask-type:luminance" maskUnits="userSpaceOnUse" x="4" y="16" width="3" height="2">
<path fill-rule="evenodd" clip-rule="evenodd" d="M4.56006 16.9919H6.57606V17.8879C6.57606 17.8879 6.32406 17.7759 6.07206 17.7759C5.82006 17.7759 5.56806 17.8879 5.56806 17.8879C5.56806 17.8879 5.31606 17.7759 5.06406 17.7759C4.81206 17.7759 4.56006 17.8879 4.56006 17.8879V16.9919Z" fill="white"/>
</mask>
<g mask="url(#mask1_1663_1477)">
<path d="M4.54181 17.7119L4.4978 17.6046C4.67938 17.5238 4.86161 17.4833 5.04411 17.4833C5.16202 17.4833 5.22359 17.4997 5.32826 17.5463C5.4202 17.5872 5.46786 17.5999 5.56841 17.5999C5.66896 17.5999 5.71662 17.5872 5.80856 17.5463C5.91323 17.4997 5.9748 17.4833 6.09271 17.4833C6.27521 17.4833 6.45744 17.5238 6.63902 17.6046L6.59501 17.7119C6.42706 17.6372 6.25975 17.5999 6.09271 17.5999C5.99216 17.5999 5.9445 17.6127 5.85256 17.6536C5.74789 17.7002 5.68632 17.7166 5.56841 17.7166C5.4505 17.7166 5.38893 17.7002 5.28426 17.6536C5.19232 17.6127 5.14466 17.5999 5.04411 17.5999C4.87707 17.5999 4.70976 17.6372 4.54181 17.7119Z" fill="white"/>
<path d="M4.54181 17.3759L4.4978 17.2686C4.67938 17.1878 4.86161 17.1472 5.04411 17.1472C5.16202 17.1472 5.22359 17.1637 5.32826 17.2102C5.4202 17.2512 5.46786 17.2639 5.56841 17.2639C5.66896 17.2639 5.71662 17.2512 5.80856 17.2102C5.91323 17.1637 5.9748 17.1472 6.09271 17.1472C6.27521 17.1472 6.45744 17.1878 6.63902 17.2686L6.59501 17.3759C6.42706 17.3011 6.25975 17.2639 6.09271 17.2639C5.99216 17.2639 5.9445 17.2766 5.85256 17.3175C5.74789 17.3641 5.68632 17.3806 5.56841 17.3806C5.4505 17.3806 5.38893 17.3641 5.28426 17.3175C5.19232 17.2766 5.14466 17.2639 5.04411 17.2639C4.87707 17.2639 4.70976 17.3011 4.54181 17.3759Z" fill="white"/>
</g>
<rect x="15.984" y="10.272" width="1.12" height="5.824" fill="#F1F9FF"/>
<path d="M17.5516 9.82349H17.2157V10.2717H15.8719V9.82349H15.536V9.26392H17.5516V9.82349Z" fill="#C88A02"/>
<path fill-rule="evenodd" clip-rule="evenodd" d="M17.216 16.4319H17.552V16.9919H15.536V16.4319H15.872V15.9839H17.216V16.4319Z" fill="#C88A02"/>
<path fill-rule="evenodd" clip-rule="evenodd" d="M16.544 9.37592C16.7877 9.37592 16.8125 9.28414 16.9563 9.14707C17.068 9.04063 17.328 8.90862 17.328 8.75992C17.328 8.41971 16.977 8.14392 16.544 8.14392C16.111 8.14392 15.76 8.41971 15.76 8.75992C15.76 8.92559 15.9391 9.03636 16.0745 9.14707C16.2171 9.26371 16.3219 9.37592 16.544 9.37592Z" fill="#AD1619"/>
<path fill-rule="evenodd" clip-rule="evenodd" d="M15.536 16.9919H17.552V17.8879C17.552 17.8879 17.3 17.7759 17.048 17.7759C16.796 17.7759 16.544 17.8879 16.544 17.8879C16.544 17.8879 16.292 17.7759 16.04 17.7759C15.788 17.7759 15.536 17.8879 15.536 17.8879V16.9919Z" fill="#005BBF"/>
<mask id="mask2_1663_1477" style="mask-type:luminance" maskUnits="userSpaceOnUse" x="15" y="16" width="3" height="2">
<path fill-rule="evenodd" clip-rule="evenodd" d="M15.536 16.9919H17.552V17.8879C17.552 17.8879 17.3 17.7759 17.048 17.7759C16.796 17.7759 16.544 17.8879 16.544 17.8879C16.544 17.8879 16.292 17.7759 16.04 17.7759C15.788 17.7759 15.536 17.8879 15.536 17.8879V16.9919Z" fill="white"/>
</mask>
<g mask="url(#mask2_1663_1477)">
<path d="M15.5178 17.7119L15.4738 17.6046C15.6553 17.5238 15.8376 17.4833 16.0201 17.4833C16.138 17.4833 16.1995 17.4997 16.3042 17.5463C16.3962 17.5872 16.4438 17.5999 16.5444 17.5999C16.6449 17.5999 16.6926 17.5872 16.7845 17.5463C16.8892 17.4997 16.9508 17.4833 17.0687 17.4833C17.2512 17.4833 17.4334 17.5238 17.615 17.6046L17.571 17.7119C17.403 17.6372 17.2357 17.5999 17.0687 17.5999C16.9681 17.5999 16.9205 17.6127 16.8285 17.6536C16.7238 17.7002 16.6623 17.7166 16.5444 17.7166C16.4265 17.7166 16.3649 17.7002 16.2602 17.6536C16.1683 17.6127 16.1206 17.5999 16.0201 17.5999C15.853 17.5999 15.6857 17.6372 15.5178 17.7119Z" fill="white"/>
<path d="M15.5178 17.3759L15.4738 17.2686C15.6553 17.1878 15.8376 17.1472 16.0201 17.1472C16.138 17.1472 16.1995 17.1637 16.3042 17.2102C16.3962 17.2512 16.4438 17.2639 16.5444 17.2639C16.6449 17.2639 16.6926 17.2512 16.7845 17.2102C16.8892 17.1637 16.9508 17.1472 17.0687 17.1472C17.2512 17.1472 17.4334 17.1878 17.615 17.2686L17.571 17.3759C17.403 17.3011 17.2357 17.2639 17.0687 17.2639C16.9681 17.2639 16.9205 17.2766 16.8285 17.3175C16.7238 17.3641 16.6623 17.3806 16.5444 17.3806C16.4265 17.3806 16.3649 17.3641 16.2602 17.3175C16.1683 17.2766 16.1206 17.2639 16.0201 17.2639C15.853 17.2639 15.6857 17.3011 15.5178 17.3759Z" fill="white"/>
</g>
<path d="M4.38794 11.8721C5.13798 11.3555 7.14608 11.3088 8.02759 11.7637L7.61646 12.5596C7.18379 12.3365 6.20123 12.2947 5.51294 12.4092C5.61755 12.4274 5.73501 12.4471 5.86646 12.4678C5.94858 12.4807 6.23686 12.5247 6.26001 12.5283C6.53484 12.5711 6.72259 12.6251 6.86157 12.7197C7.14537 12.9129 7.18714 13.2617 6.98462 13.5186C6.89918 13.6268 6.78732 13.7077 6.61841 13.8057C6.56414 13.8371 6.50543 13.8693 6.427 13.9111C6.411 13.9197 6.27479 13.9921 6.23462 14.0137C6.07316 14.1004 5.96699 14.1632 5.88794 14.2207C5.76412 14.3108 5.63658 14.384 5.49243 14.4531C5.4147 14.4904 5.19362 14.5869 5.1936 14.5869C5.18919 14.5889 5.185 14.591 5.18091 14.5928C5.25854 14.6979 5.30293 14.8266 5.30298 14.9756C5.30298 15.2121 5.18947 15.4349 4.98755 15.6797L4.30005 15.1123L4.23462 15.0928L4.19849 14.8057C4.13094 14.2765 4.35662 13.9835 4.82251 13.7715C4.83439 13.7661 5.04559 13.6743 5.10571 13.6455C5.20405 13.5984 5.28491 13.5511 5.3606 13.4961C5.43529 13.4418 5.51585 13.3901 5.61255 13.334C5.03571 13.2413 4.72379 13.1733 4.48462 13.0703C3.91229 12.8237 3.83812 12.251 4.38794 11.8721ZM13.9807 11.7637C14.8621 11.3086 16.8702 11.3555 17.6204 11.8721C18.1705 12.251 18.097 12.8237 17.5247 13.0703C17.2855 13.1733 16.9735 13.2413 16.3967 13.334C16.4933 13.39 16.5731 13.4418 16.6477 13.4961C16.7235 13.5512 16.8051 13.5983 16.9036 13.6455C16.9642 13.6745 17.1739 13.7661 17.1858 13.7715C17.652 13.9835 17.8783 14.2763 17.8108 14.8057L17.7747 15.0928L17.7083 15.1123L17.0208 15.6797C16.8189 15.4349 16.7063 15.2121 16.7063 14.9756C16.7063 14.8265 16.7506 14.698 16.8284 14.5928C16.8242 14.5909 16.8192 14.589 16.8147 14.5869C16.8074 14.5838 16.5919 14.4896 16.5159 14.4531C16.3718 14.3841 16.2451 14.3107 16.1213 14.2207C16.0423 14.1632 15.9361 14.1004 15.7747 14.0137C15.7351 13.9924 15.5994 13.9203 15.5823 13.9111C15.5038 13.8693 15.4451 13.8371 15.3909 13.8057C15.2219 13.7077 15.1101 13.6268 15.0247 13.5186C14.8221 13.2617 14.8639 12.9129 15.1477 12.7197C15.2867 12.6252 15.4744 12.571 15.7493 12.5283C15.773 12.5246 16.0611 12.4806 16.1428 12.4678C16.2743 12.4471 16.3917 12.4275 16.4963 12.4092C15.8078 12.2946 14.8244 12.3363 14.3918 12.5596L13.9807 11.7637Z" fill="#AD1619"/>
<path d="M5.92341 12.3999L6.254 12.4683V12.961C5.9019 13.242 5.00806 13.7155 5.00806 13.7155V12.3999H5.92341Z" fill="#F1F9FF"/>
<path d="M16.3146 12.3999L15.984 12.4683V12.961C16.3361 13.242 17.23 13.7155 17.23 13.7155V12.3999H16.3146Z" fill="#F1F9FF"/>
<path d="M9.26172 6.42224C9.26172 6.42224 10.2 6.0168 11.1309 6.10779L11.1299 6.10974C11.7494 6.04971 12.3621 6.15462 12.9668 6.42224C13.5971 6.42235 14.2004 6.62902 14.7764 7.04236V7.20642L13.6465 8.34021C13.4206 8.96631 13.0177 8.99959 12.7041 9.10388C12.5983 9.138 11.153 9.17836 11.127 9.17908C11.127 9.17908 11.127 9.17745 11.127 9.17517C8.89972 9.43201 8.58203 8.34021 8.58203 8.34021L7.45215 7.20642V7.04236C7.45215 7.04236 8.31611 6.42235 9.26172 6.42224Z" fill="#AD1619"/>
<path d="M12.8694 7.50134C12.8942 7.78011 12.9706 7.91075 13.0833 7.92908C13.2364 7.95396 13.3526 7.94268 13.4338 7.8988L13.5989 7.80896V7.9613C13.6508 7.96683 13.7406 7.95755 13.8625 7.93103L13.8977 8.09314L14.7239 7.31677L14.8 7.3988L13.7727 8.36462C13.6228 8.64065 13.5471 8.82312 13.5471 8.8988C13.5471 9.01425 13.2466 9.08232 12.6604 9.15271C12.2012 9.20783 11.6593 9.24289 11.2161 9.24841V9.25134C11.1974 9.25134 11.1785 9.24951 11.1594 9.24939C11.1407 9.24951 11.1221 9.25134 11.1038 9.25134V9.24841C10.6605 9.24288 10.1186 9.20783 9.65942 9.15271C9.0732 9.08232 8.77274 9.01425 8.77271 8.8988C8.77271 8.88286 8.76767 8.86255 8.76099 8.83728C8.70519 8.76265 8.66484 8.64629 8.63794 8.53943C8.61147 8.48629 8.58138 8.42772 8.54712 8.36462L8.31958 8.15076C8.31765 8.15034 8.31566 8.1502 8.31372 8.14978V8.14587L7.51978 7.3988L7.59692 7.31677L8.34204 8.01794L8.36157 7.93103C8.48326 7.95747 8.57231 7.96678 8.62427 7.9613V7.80896L8.78931 7.8988C8.87062 7.94281 8.98751 7.95403 9.14087 7.92908C9.25349 7.91072 9.32989 7.78007 9.35474 7.50134L9.40454 6.93884L9.57251 7.47791C9.64867 7.72196 9.76551 7.82947 9.93091 7.82947C10.0922 7.8294 10.1571 7.77056 10.1643 7.62146L10.1848 7.19763L10.3762 7.57654C10.4451 7.71237 10.5401 7.77369 10.675 7.7738C10.8685 7.7738 10.9983 7.61279 10.9983 7.35974H11.2258C11.2258 7.61265 11.3548 7.77363 11.5481 7.7738C11.6833 7.7738 11.7789 7.71257 11.8479 7.57654L12.0393 7.19763L12.0598 7.62146C12.067 7.77064 12.1317 7.82947 12.2932 7.82947C12.4586 7.82947 12.5745 7.72196 12.6506 7.47791L12.8196 6.93884L12.8694 7.50134ZM11.0989 8.66052C10.807 8.6791 9.19136 8.78637 8.94556 8.90076C8.94138 8.90271 8.93597 8.90214 8.93188 8.90369C8.96819 8.91716 9.0178 8.93337 9.08032 8.94763C9.22433 8.98048 9.42928 9.0132 9.67212 9.04236C10.1465 9.09932 10.7109 9.13509 11.1594 9.13806C11.6081 9.13514 12.1729 9.09936 12.6477 9.04236C12.8905 9.0132 13.0955 8.98047 13.2395 8.94763C13.3128 8.93091 13.3696 8.91431 13.4065 8.8988C13.4196 8.89329 13.4292 8.88746 13.4358 8.88318C13.437 8.86526 13.4421 8.84534 13.4475 8.82263C13.397 8.89752 13.3342 8.93868 13.2532 8.90076C13.0084 8.78624 11.3895 8.67902 11.0989 8.66052ZM12.7141 7.84705C12.625 7.96056 12.5109 8.02514 12.3743 8.04431C13.0872 8.14443 13.5916 8.28585 13.6077 8.29041C13.6077 8.29041 13.5946 8.39905 13.5637 8.52576C13.596 8.45935 13.6344 8.38492 13.679 8.3031L13.6897 8.28943L13.8215 8.16443C13.6366 8.19743 13.5035 8.19655 13.4329 8.13904C13.323 8.171 13.1942 8.17468 13.0471 8.15076C12.8899 8.12517 12.78 8.02053 12.7141 7.84705ZM9.50903 7.84705C9.44315 8.02036 9.33411 8.12515 9.177 8.15076C9.02992 8.17469 8.90112 8.17094 8.79126 8.13904C8.73593 8.18409 8.64183 8.19397 8.51489 8.18103L8.62231 8.28162C8.74539 8.24853 9.21158 8.13027 9.83521 8.04333C9.70484 8.0215 9.59509 7.95669 9.50903 7.84705ZM11.9026 7.86951C11.8457 7.91971 11.78 7.95317 11.7073 7.974C11.8255 7.98287 11.9411 7.99198 12.053 8.00427C11.9898 7.97327 11.9389 7.92796 11.9026 7.86951ZM10.3206 7.86951C10.2853 7.92619 10.2366 7.96947 10.176 8.00037C10.2843 7.98879 10.396 7.98037 10.51 7.97205C10.4399 7.95095 10.3757 7.91824 10.3206 7.86951ZM11.1116 7.75818C11.0551 7.84577 10.98 7.91304 10.887 7.95349C10.9423 7.95176 10.998 7.94924 11.054 7.94861V7.94666C11.0689 7.94666 11.084 7.94755 11.0989 7.94763C11.1138 7.94755 11.1288 7.94666 11.1438 7.94666V7.94861C11.2094 7.94934 11.2744 7.95223 11.3391 7.95447C11.245 7.91408 11.1685 7.84663 11.1116 7.75818Z" fill="#C88A02"/>
<path fill-rule="evenodd" clip-rule="evenodd" d="M11.1124 5.34705C11.2979 5.34705 11.4484 5.19662 11.4484 5.01105C11.4484 4.82548 11.2979 4.67505 11.1124 4.67505C10.9268 4.67505 10.7764 4.82548 10.7764 5.01105C10.7764 5.19662 10.9268 5.34705 11.1124 5.34705Z" fill="#005BBF"/>
<path d="M7.7854 7.26514C7.87404 7.23804 7.9823 7.33528 8.02759 7.48291C8.03919 7.52087 8.04469 7.55891 8.04614 7.59424C8.07699 7.55784 8.11674 7.52148 8.16724 7.49463C8.30373 7.42212 8.44986 7.43031 8.49341 7.51221C8.53649 7.59414 8.46077 7.71903 8.32446 7.7915C8.18823 7.8638 8.04304 7.8564 7.99927 7.7749C7.99816 7.77282 7.99729 7.7702 7.99634 7.76807C7.9828 7.7827 7.96787 7.79458 7.94946 7.80029C7.86073 7.82742 7.75151 7.72943 7.7063 7.58154C7.66112 7.43369 7.69668 7.29226 7.7854 7.26514ZM14.3596 7.22998C14.4483 7.25711 14.4839 7.39948 14.4387 7.54736C14.3935 7.69505 14.2852 7.79302 14.1965 7.76611C14.1779 7.76042 14.1623 7.74868 14.1487 7.73389C14.1478 7.73594 14.1478 7.73872 14.1467 7.74072C14.103 7.82242 13.9569 7.82979 13.8206 7.75732C13.684 7.68473 13.6081 7.55897 13.6516 7.47705C13.6952 7.3953 13.8414 7.38808 13.9778 7.46045C14.0275 7.48688 14.0672 7.52235 14.0979 7.55811C14.0995 7.52329 14.106 7.48606 14.1174 7.44873C14.1626 7.30128 14.271 7.20344 14.3596 7.22998ZM9.32544 6.80225C9.41642 6.78467 9.51365 6.89286 9.54321 7.04443C9.55394 7.09961 9.55066 7.15242 9.54224 7.19873C9.57701 7.18944 9.61597 7.18408 9.65649 7.18408C9.81075 7.18421 9.93547 7.25951 9.93579 7.35205C9.93579 7.44475 9.81095 7.51989 9.65649 7.52002C9.50185 7.52002 9.37622 7.44483 9.37622 7.35205C9.37623 7.35007 9.37708 7.34815 9.3772 7.34619C9.37621 7.34587 9.37525 7.34557 9.37427 7.34521C9.37443 7.34752 9.37621 7.34972 9.37622 7.35205C9.37622 7.44483 9.25059 7.52002 9.09595 7.52002C8.94138 7.51997 8.81567 7.44481 8.81567 7.35205C8.816 7.25946 8.94157 7.18413 9.09595 7.18408C9.15264 7.18408 9.2042 7.19795 9.24829 7.21533C9.23313 7.18362 9.22165 7.14758 9.21411 7.10889C9.1846 6.95709 9.23436 6.81995 9.32544 6.80225ZM12.7805 6.76025C12.8731 6.75563 12.955 6.87745 12.9631 7.03174C12.9661 7.08788 12.9545 7.1394 12.9397 7.18408C12.9755 7.17968 13.0147 7.18038 13.0549 7.18604C13.2079 7.20764 13.3217 7.29929 13.3088 7.39111C13.2958 7.48288 13.1611 7.53954 13.0081 7.51807C12.8549 7.49654 12.7412 7.40487 12.7542 7.31299C12.7545 7.3107 12.7547 7.3084 12.7551 7.30615L12.7532 7.30518C12.753 7.30774 12.7545 7.31042 12.7542 7.31299C12.7412 7.40487 12.6065 7.46146 12.4534 7.43994C12.3003 7.4184 12.1866 7.32673 12.1995 7.23486C12.2125 7.14308 12.3472 7.0864 12.5002 7.10791C12.5559 7.11575 12.6047 7.13563 12.6458 7.15869C12.6353 7.12542 12.6293 7.08832 12.6272 7.04932C12.6191 6.89489 12.6879 6.76511 12.7805 6.76025ZM11.0051 6.68994C11.0962 6.67224 11.1944 6.78131 11.2239 6.93311C11.2345 6.98801 11.2303 7.0403 11.2219 7.08643C11.2568 7.07709 11.2956 7.07275 11.3362 7.07275C11.4908 7.07278 11.6165 7.14796 11.6165 7.24072C11.6162 7.33335 11.4906 7.40866 11.3362 7.40869C11.1817 7.40869 11.0562 7.33336 11.0559 7.24072C11.0559 7.23853 11.0567 7.23606 11.0569 7.23389C11.0559 7.23356 11.0549 7.23326 11.054 7.23291C11.0541 7.23544 11.0559 7.23816 11.0559 7.24072C11.0556 7.33336 10.9301 7.40869 10.7756 7.40869C10.6214 7.40854 10.4966 7.33327 10.4963 7.24072C10.4963 7.14803 10.6212 7.0729 10.7756 7.07275C10.8325 7.07275 10.8848 7.08553 10.929 7.10303C10.9138 7.07127 10.9013 7.03535 10.8938 6.99658C10.8644 6.84493 10.9142 6.70774 11.0051 6.68994Z" fill="#C88A02"/>
<path d="M11.2197 4.224H11.373V4.4574H11.2197V4.92419H11.373V5.15759H10.832V4.92419H10.9873V4.4574H10.832V4.224H10.9873V4.07654H11.2197V4.224Z" fill="#C88A02"/>
<rect x="10.9441" y="5.34399" width="0.448" height="1.456" fill="#C88A02"/>
<path d="M9.14067 5.58785L9.13872 5.69984C8.14562 5.6825 7.57596 5.82742 7.43136 6.11627C7.28186 6.4149 7.30966 6.77792 7.51914 7.20915L7.4184 7.25809C7.19489 6.79799 7.16437 6.3994 7.33121 6.06614C7.50294 5.7231 8.10556 5.56978 9.14067 5.58785Z" fill="white"/>
<path d="M9.33286 6.58095L9.27544 6.67711C9.05917 6.54798 8.95093 6.3276 8.95093 6.0239C8.95093 5.58742 9.17577 5.33147 9.67312 5.15631C9.99055 5.04452 10.4242 5.09035 10.9752 5.29013L10.937 5.39542C10.408 5.20364 9.99874 5.16038 9.71033 5.26195C9.25414 5.42261 9.06293 5.64028 9.06293 6.0239C9.06293 6.29041 9.15283 6.47346 9.33286 6.58095Z" fill="white"/>
<path d="M7.66018 7.03733L7.44884 7.11156C7.22956 6.48721 7.29218 6.0632 7.66687 5.88029C7.99704 5.71912 8.47822 5.65353 9.11282 5.67925L9.10375 5.90306C8.50291 5.87872 8.05591 5.93965 7.76513 6.08159C7.51889 6.20179 7.47384 6.50678 7.66018 7.03733Z" fill="#C88A02"/>
<path d="M10.1294 5.4386C9.61727 5.4386 9.40696 5.56333 9.28681 5.93162C9.21024 6.16632 9.2845 6.36664 9.52529 6.55362L9.3879 6.73054C9.07616 6.48846 8.96625 6.19198 9.07386 5.86215C9.22698 5.3928 9.52744 5.2146 10.1294 5.2146C10.524 5.2146 10.8313 5.31826 11.0453 5.52922L11.0787 5.56212V6.64208H10.8547V5.65786C10.6876 5.51268 10.4475 5.4386 10.1294 5.4386Z" fill="#C88A02"/>
<path d="M13.0491 5.69979L13.0511 5.81177C14.0442 5.79444 14.6139 5.93936 14.7585 6.22821C14.908 6.52684 14.8802 6.88986 14.6707 7.32109L14.7714 7.37003C14.9949 6.90993 15.0254 6.51134 14.8586 6.17807C14.6869 5.83503 14.0843 5.68172 13.0491 5.69979Z" fill="white"/>
<path d="M12.6984 6.60426L12.7558 6.70043C12.9721 6.57129 13.0803 6.35092 13.0803 6.04722C13.0803 5.61074 12.8555 5.35478 12.3581 5.17962C12.0407 5.06783 11.6071 5.11367 11.0561 5.31345L11.0943 5.41874C11.6232 5.22696 12.0325 5.18369 12.3209 5.28526C12.7771 5.44592 12.9683 5.6636 12.9683 6.04722C12.9683 6.31373 12.8784 6.49677 12.6984 6.60426Z" fill="white"/>
<path d="M14.5993 7.14939L14.8107 7.22362C15.03 6.59927 14.9673 6.17526 14.5926 5.99235C14.2625 5.83118 13.7813 5.76559 13.1467 5.79131L13.1558 6.01513C13.7566 5.99078 14.2036 6.05171 14.4944 6.19365C14.7406 6.31385 14.7857 6.61884 14.5993 7.14939Z" fill="#C88A02"/>
<path d="M12.1174 5.45593C12.6296 5.45593 12.8399 5.58067 12.96 5.94895C13.0366 6.18366 12.9623 6.38397 12.7215 6.57096L12.8589 6.74788C13.1707 6.5058 13.2806 6.20931 13.173 5.87948C13.0198 5.41013 12.7194 5.23193 12.1174 5.23193C11.7229 5.23193 11.4155 5.33559 11.2015 5.54655L11.1681 5.57945V6.65942H11.3921V5.67519C11.5593 5.53002 11.7993 5.45593 12.1174 5.45593Z" fill="#C88A02"/>
<path opacity="0.3" fill-rule="evenodd" clip-rule="evenodd" d="M7.47205 9.26392H14.752V15.8047C14.752 15.8047 14.2113 17.9999 11.112 17.9999C8.01282 17.9999 7.47205 15.7469 7.47205 15.7469V9.26392Z" fill="#E1E5E8"/>
<mask id="mask3_1663_1477" style="mask-type:luminance" maskUnits="userSpaceOnUse" x="7" y="9" width="8" height="9">
<path fill-rule="evenodd" clip-rule="evenodd" d="M7.47205 9.26392H14.752V15.8047C14.752 15.8047 14.2113 17.9999 11.112 17.9999C8.01282 17.9999 7.47205 15.7469 7.47205 15.7469V9.26392Z" fill="white"/>
</mask>
<g mask="url(#mask3_1663_1477)">
<rect x="7.47205" y="13.2959" width="3.696" height="4.368" fill="#FFC034"/>
<rect x="7.92004" y="13.5199" width="0.448" height="4.144" fill="#AD1619"/>
<rect x="9.48804" y="13.5199" width="0.448" height="4.144" fill="#AD1619"/>
<rect x="8.7041" y="13.5199" width="0.448" height="4.144" fill="#AD1619"/>
<rect x="10.2721" y="13.5199" width="0.448" height="4.144" fill="#AD1619"/>
<rect x="7.47205" y="9.15186" width="3.696" height="4.256" fill="#AD1619"/>
<rect x="11.056" y="13.184" width="3.696" height="4.256" fill="#AD1619"/>
<rect x="11.056" y="9.26392" width="3.92" height="4.144" fill="#F1F9FF"/>
<path d="M9.37622 10.5287H9.59985V10.0648H9.93579V10.5287H10.2717V11.1097H9.93579V12.1556H10.2717V12.7357H8.2561V12.1556H8.59204V11.1097H8.2561V10.5287H8.47974V10.0648H8.81567V10.5287H9.04028V9.59998H9.37622V10.5287Z" fill="#C88A02"/>
<path d="M12.6261 9.80432C12.8926 9.69787 13.2032 9.80993 13.4669 10.1862C13.6172 10.4007 13.6173 10.6374 13.4708 10.8248C13.3969 10.9193 13.2951 10.991 13.171 11.0494C13.2649 11.1821 13.3216 11.2566 13.4181 11.3658C13.4639 11.4177 13.5039 11.4672 13.5402 11.5133C13.5751 11.4934 13.6192 11.477 13.674 11.4606C13.6827 11.458 13.6918 11.4554 13.7013 11.4528C13.736 11.4431 13.7609 11.4352 13.7814 11.4283C13.8739 11.3973 13.8706 11.408 13.8702 11.1393C13.8702 11.1186 13.8702 11.1177 13.8702 11.0963C13.8702 11.0289 13.8679 10.9712 13.8624 10.8395C13.8622 10.8334 13.8626 10.8327 13.8624 10.8268C13.8423 10.3427 13.8599 10.1569 14.0079 10.024L14.1573 10.191C14.0857 10.2559 14.0697 10.4228 14.0861 10.817C14.0863 10.8232 14.0858 10.8242 14.0861 10.8307C14.0917 10.9655 14.0939 11.0247 14.0939 11.0963C14.0939 11.1174 14.0938 11.1181 14.0939 11.1383C14.0943 11.4946 14.0673 11.5692 13.8527 11.6412C13.8277 11.6496 13.799 11.658 13.7609 11.6686C13.7529 11.6708 13.7455 11.6733 13.7384 11.6754C13.7071 11.6848 13.6845 11.6893 13.6691 11.6959C13.6901 11.7315 13.7078 11.765 13.7208 11.7965C13.7809 11.9421 13.7615 12.0803 13.6505 12.1588C13.6509 12.1607 13.6511 12.163 13.6515 12.1647C13.6523 12.1685 13.6534 12.1728 13.6564 12.1842C13.6693 12.237 13.6668 12.2912 13.6427 12.5055C13.6291 12.6266 13.6291 12.7065 13.6368 12.7281C13.6294 12.7074 13.602 12.6841 13.5636 12.6842L13.5568 12.6783C13.5549 12.6804 13.5527 12.6823 13.5509 12.6842H13.5636L13.5714 12.691C13.5672 12.6917 13.5633 12.6931 13.5597 12.694L13.549 12.6842C13.5396 12.6941 13.5331 12.702 13.5284 12.7057L13.5304 12.7047C13.5368 12.7009 13.5463 12.6971 13.5597 12.694L13.7081 12.8287C13.614 12.9326 13.4788 12.9497 13.4259 12.8033C13.4025 12.7382 13.4026 12.6354 13.42 12.4801C13.4405 12.2983 13.4424 12.2542 13.4386 12.2379C13.4364 12.2295 13.4338 12.2199 13.4318 12.2106C13.4238 12.1728 13.4197 12.1221 13.4191 12.0387L13.3312 12.2311C13.2315 12.185 13.18 12.1431 13.1671 12.0699C13.1626 12.0441 13.1653 12.0207 13.172 11.9967C13.1751 11.9855 13.1787 11.9736 13.1837 11.9606C13.1953 11.9286 13.1924 11.9097 13.1417 11.8405C13.1293 11.8235 13.117 11.805 13.1036 11.7858C13.0993 11.7845 13.0951 11.7831 13.0909 11.7819C13.0382 11.7664 12.9929 11.7549 12.9562 11.7477C12.9683 11.7794 12.9829 11.8139 13.0001 11.8531C13.0026 11.8586 13.0618 11.9898 13.0763 12.025C13.1062 12.0975 13.122 12.1519 13.1251 12.2057C13.1381 12.4349 12.9529 12.4902 12.7218 12.4225C12.5494 12.3718 12.4611 12.3515 12.4366 12.3522C12.513 12.35 12.5548 12.2662 12.5499 12.235L12.2179 12.2867C12.1956 12.144 12.2577 12.0211 12.4279 12.0162C12.4922 12.0145 12.5747 12.0308 12.7306 12.0748C12.7199 12.0506 12.7073 12.0217 12.6925 11.9879C12.6554 11.9035 12.6283 11.8358 12.6075 11.7672C12.5494 11.5751 12.6471 11.4242 12.8331 11.4049C12.8427 11.4039 12.8525 11.4043 12.8624 11.4039C12.8224 11.3368 12.7803 11.2641 12.7355 11.1862C12.7106 11.191 12.6877 11.1975 12.6661 11.2008L12.6525 11.1139C12.5592 11.2179 12.4657 11.3144 12.3732 11.3873C12.1501 11.5631 11.9425 11.622 11.7863 11.4469L12.0372 11.2233C12.0289 11.2139 12.0156 11.2109 12.0236 11.2086C12.0567 11.1992 12.1064 11.17 12.1652 11.1237C12.2282 11.074 12.295 11.0074 12.3634 10.9342C12.2692 10.8715 12.1766 10.7852 12.087 10.6764C12.0196 10.5945 11.9609 10.5399 11.9054 10.5016C11.8777 10.4825 11.7949 10.4371 11.7833 10.4293C11.6449 10.3362 11.6526 10.2478 11.7365 10.0367L12.049 10.1608C12.045 10.1706 12.0413 10.18 12.0382 10.1881C12.0583 10.2 12.0795 10.213 12.0958 10.2242C12.1778 10.2807 12.2597 10.3576 12.3468 10.4635C12.4328 10.568 12.5123 10.6376 12.5861 10.6774L12.5822 10.6471C12.597 10.6449 12.6277 10.6387 12.6681 10.6295C12.7356 10.6142 12.8028 10.5947 12.8634 10.5719C12.9259 10.5483 12.9748 10.5234 13.004 10.5026C12.9289 10.3965 12.8689 10.3448 12.8273 10.3297C12.8212 10.3275 12.8265 10.3279 12.8341 10.3248C12.8421 10.3216 12.8517 10.3156 12.8644 10.3063L12.5314 9.85608C12.5553 9.83838 12.5868 9.82 12.6261 9.80432ZM13.4113 11.9264C13.4124 11.9568 13.4103 11.9864 13.4015 12.0162C13.4067 12.0189 13.4125 12.0219 13.4191 12.025C13.4191 12.0218 13.4191 12.0186 13.4191 12.0153C13.4191 11.9903 13.4178 11.9668 13.4171 11.941C13.4158 11.9387 13.4142 11.9337 13.4113 11.9264Z" fill="#C37C9C"/>
<path d="M12.9789 9.79497L13.2082 9.54944L13.6898 9.99926L13.4604 10.2448L12.9789 9.79497Z" fill="#C88A02"/>
<path d="M14.3599 16.14L14.355 16.1595C14.2126 16.7501 13.7305 17.0481 12.9604 17.0482C12.1893 17.0482 11.7067 16.742 11.5649 16.1381L11.5601 16.1195V13.6879H14.3599V16.14ZM11.896 16.0795C12.0034 16.5031 12.3417 16.7123 12.9604 16.7123C13.5791 16.7122 13.9168 16.5087 14.0239 16.099V14.0238H11.896V16.0795Z" fill="#FFC034"/>
<path d="M13.0759 14.887L13.8875 14.0042L14.0525 14.1555L13.2205 15.0608H14.1511V15.3967H13.2029L14.0525 16.3215L13.8875 16.4729L13.0759 15.5891V16.7717H12.8425V15.4719L11.9226 16.4729L11.7576 16.3215L12.6062 15.3967H11.8357V15.0608H12.5906L11.7576 14.1555L11.9226 14.0042L12.8425 15.0042V13.8928H13.0759V14.887Z" fill="#FFC034"/>
<path fill-rule="evenodd" clip-rule="evenodd" d="M13.4828 17.4426C13.4828 17.4426 11.1106 17.6291 11.1106 16.0991C11.1106 16.0991 11.088 17.4426 8.61096 17.4426V18.6504H13.4828V17.4426Z" fill="#F1F9FF"/>
<path fill-rule="evenodd" clip-rule="evenodd" d="M11.1121 14.1919C11.576 14.1919 11.9521 13.7907 11.9521 13.2959C11.9521 12.8011 11.576 12.3999 11.1121 12.3999C10.6482 12.3999 10.2721 12.8011 10.2721 13.2959C10.2721 13.7907 10.6482 14.1919 11.1121 14.1919Z" fill="#005BBF" stroke="#AD1619" stroke-width="1.16667"/>
</g>
</g>
</g>
<defs>
<clipPath id="clip0_1663_1477">
<rect width="32" height="24" fill="white"/>
</clipPath>
</defs>
</svg>
